<svg xmlns="http://www.w3.org/2000/svg" viewBox="0 0 60 60"><defs><style>.cls-1{fill:none;}.cls-2{fill:#fff;}.cls-3{fill:#371e14;}.cls-4{fill:#544036;}.cls-5{fill:#b8b0a9;}.cls-6{fill:#b6aea7;}.cls-7{fill:#f7f4f2;}.cls-8{fill:#664233;}.cls-9{fill:#f7d3c1;}.cls-10{fill:#534035;}.cls-11{fill:#4e2f23;}.cls-12{fill:#fcfbf9;}.cls-13{fill:#e8a793;}.cls-14{fill:#fdfdfc;}.cls-15{fill:#f2cfbd;}.cls-16{fill:#361910;}.cls-17{fill:#e89e8b;}</style></defs><g id="圖層_2" data-name="圖層 2"><g id="圖層_1-2" data-name="圖層 1"><g id="圖層_2-2" data-name="圖層 2"><g id="圖層_1-2-2" data-name="圖層 1-2"><path class="cls-1" d="M60,30q0,14.86,0,29.73c0,.22,0,.27-.27.27H.27C.05,60,0,60,0,59.73Q0,30,0,.27C0,.05.05,0,.27,0H59.73C60,0,60,.05,60,.27Q60,15.14,60,30ZM46.39,48.4c.13.79.25,1.57.37,2.36s.23,1.54.34,2.31c0,.11,0,.2.18.18s.12-.13.11-.23c-.14-1-.29-2-.43-3s-.3-1.92-.44-2.88c.26-.53.58-1,.89-1.51a.21.21,0,0,1,.09.17c.13.74.25,1.48.37,2.22l.75,4.58c0,.1,0,.24.15.22s.13-.14.11-.27c-.14-.89-.28-1.78-.43-2.68-.25-1.55-.5-3.11-.76-4.66l.54-.8.11.32a66.89,66.89,0,0,1,1.51,7.53c0,.15,0,.31.24.29s.19-.17.17-.31c-.37-2.14-.7-4.27-1.22-6.38a11.05,11.05,0,0,0-1.61-3.94.62.62,0,0,1-.15-.61.34.34,0,0,0-.05-.36.76.76,0,0,1,0-1,.76.76,0,0,0,.06-.2,4.34,4.34,0,0,0-.36-3.18c0-.1-.13-.18,0-.31a3.22,3.22,0,0,0-.55-4c-.33-.32-.66-.63-1-1a2.45,2.45,0,0,1-.72-2A4.44,4.44,0,0,1,45,28.23a5.27,5.27,0,0,0-.84-5.44c-.28-.35-.59-.68-.88-1a4.34,4.34,0,0,1-1.14-2.63,17,17,0,0,0-.18-1.75,12.31,12.31,0,0,0-4.75-7.77,8.85,8.85,0,0,0-4.18-2,4.21,4.21,0,0,0-2.87.41.21.21,0,0,1-.25,0,2.92,2.92,0,0,0-1-.37,5.83,5.83,0,0,0-3.81.58A12.33,12.33,0,0,0,17.94,19a4.3,4.3,0,0,1-.83,2.37c-.38.48-.79.94-1.18,1.41a5.15,5.15,0,0,0-1.23,4,8.71,8.71,0,0,0,.53,1.94,2.33,2.33,0,0,1-.54,2.63c-.23.25-.46.48-.68.74a2.73,2.73,0,0,0-.53,2.86.35.35,0,0,1-.06.37,4.07,4.07,0,0,0-.65,1.17A3.81,3.81,0,0,0,13.3,40c.11.15.1.23-.06.33a2,2,0,0,0-.49.46.92.92,0,0,0-.2,1c0,.1,0,.16-.05.23a10.34,10.34,0,0,0-1.43,3.49c-.54,2.2-.92,4.42-1.3,6.65,0,.16-.07.33.14.37s.21-.15.24-.3c.39-2.19.74-4.39,1.28-6.56a9.82,9.82,0,0,1,.36-1.27,5.11,5.11,0,0,1,.52.79.71.71,0,0,1,0,.14c-.27,1.45-.5,2.91-.73,4.37-.14.95-.3,1.9-.45,2.85,0,.11-.06.23.1.26s.16-.12.18-.21.06-.45.1-.67c.27-1.66.53-3.32.82-5a5.22,5.22,0,0,1,.28-1.36c.3.49.62,1,.88,1.47a2.81,2.81,0,0,1,0,.29c-.2,1.3-.39,2.6-.6,3.89-.08.57-.17,1.14-.26,1.7,0,.11,0,.24.11.26s.16-.11.19-.21l0-.11c.19-1.37.39-2.74.6-4.1a4.39,4.39,0,0,1,.22-1.19,17.28,17.28,0,0,1,1.06,2.16l-.06.23c-.14,1.12-.29,2.25-.44,3.37,0,.12,0,.23.11.26s.17-.1.19-.2c.07-.57.13-1.14.2-1.71a9.5,9.5,0,0,1,.24-1.48,5.24,5.24,0,0,1,.76,3.09,1.71,1.71,0,0,0,0,.32c0,.14,0,.29.18.3s.2-.15.2-.29c0-1.6,0-3.2-.07-4.8,0-.11,0-.23-.17-.22s-.15.12-.15.24c0,.62,0,1.25,0,1.87a.3.3,0,0,1-.05.23l-.25-.62s0,0,0-.06h0l0-.11c.08-.06,0-.16,0-.24,0-.54,0-1.09,0-1.63,0-1.37,0-2.74,0-4.12a8.73,8.73,0,0,1,1.23.77c0,.7,0,1.41,0,2.11,0,2.1,0,4.21,0,6.32,0,.14-.11.42.16.41s.12-.27.12-.41c0-.87,0-1.74,0-2.6.05-1.76.06-3.51,0-5.27,0-.11,0-.23.06-.33l1.76,1.06c0,.37,0,.74,0,1.11,0,2,0,4.11,0,6.16,0,.14,0,.32.16.32s.12-.2.13-.31c0-1.78,0-3.57,0-5.35V46.72c0-.09,0-.2.08-.26a5.19,5.19,0,0,1,1,.54c0,.36,0,.72,0,1.08,0,1.82,0,3.65,0,5.47v.18c0,.08.05.16.14.16a.15.15,0,0,0,.15-.15v-.21c0-2,0-4.07.05-6.11,0-.09,0-.2.07-.26l1.06.52c0,1.43,0,2.85,0,4.28,0,.55,0,1.11,0,1.66,0,.12,0,.27.14.28s.14-.15.14-.26c0-1.29,0-2.59,0-3.89,0-.64,0-1.29,0-1.93a9.32,9.32,0,0,1,1.2.56c0,.38-.07.77-.07,1.16,0,1.34,0,2.67,0,4,0,.13-.1.38.14.37s.14-.24.14-.39l0-4.71c0-.11-.07-.27.12-.31l1,.43v4.7c0,.1-.05.24.11.26s.14-.13.14-.23V49.05c.52.17,1,.36,1.57.51.22.06.24.12.13.32a15,15,0,0,0-1.42,4c0,.12-.09.28.08.36s.26-.06.33-.18H29c0,.1.07.22.21.22s.17-.13.23-.22H35a.18.18,0,0,0,.22.18c.16,0,.17-.16.18-.29s.08-.19.08-.3c.06-1,0-2,0-2.95,0-.64,0-1.29,0-1.93l1.11-.47c.09.07.06.18.06.27,0,1.67,0,3.34,0,5a1.14,1.14,0,0,0,0,.26.14.14,0,0,0,.14.12c.09,0,.12-.06.12-.14a1,1,0,0,0,0-.17c0-1.69,0-3.38,0-5.07a1.34,1.34,0,0,0-.06-.4A11.45,11.45,0,0,1,38,47.62c.11.09.06.22.06.33,0,1.87,0,3.75.06,5.62v.18a.13.13,0,0,0,.14.15c.1,0,.13-.07.14-.15a1.93,1.93,0,0,0,0-.24c0-.81,0-1.62,0-2.43,0-1.21,0-2.42,0-3.63l1.13-.6c0,1.31,0,2.63,0,3.94,0,1,0,1.89,0,2.84,0,.1,0,.24.13.25s.15-.14.15-.25v-.21c0-2.24,0-4.48,0-6.72l1-.6a2.2,2.2,0,0,1,.05.57c0,2.27,0,4.53,0,6.8,0,.12-.11.37.14.36s.14-.24.14-.38q0-3.66,0-7.31c0-.07,0-.14,0-.21l1.76-1.11c.1.07,0,.18,0,.27,0,1.29,0,2.59,0,3.89,0,1.51,0,3,0,4.53a1.93,1.93,0,0,0,0,.24.12.12,0,0,0,.15.1.13.13,0,0,0,.12-.11,1.77,1.77,0,0,0,0-.23c0-1.32,0-2.63,0-3.95s0-2.38,0-3.57v-1.4l1.23-.83a.19.19,0,0,1,0,.08c0,2.16,0,4.33,0,6.5a1.51,1.51,0,0,1-.25.58c0-.65,0-1.3,0-1.94,0-.13,0-.31-.17-.31s-.15.17-.16.29c-.06,1.53-.08,3.06-.07,4.59,0,.08,0,.16,0,.23A.18.18,0,0,0,44,54h0c.13,0,.19-.09.19-.22s0-.5,0-.76a3.21,3.21,0,0,1,.29-1.67c.17-.35.32-.71.48-1.06,0,.17.08.35.1.53.12.87.22,1.74.34,2.6,0,.11,0,.27.17.24s.12-.17.1-.29c-.09-.71-.17-1.43-.27-2.14a7,7,0,0,0-.22-1.36,6.68,6.68,0,0,1,.64-1.35C46,48.58,46.19,48.36,46.39,48.4Z"/><path class="cls-2" d="M10,43.34a12,12,0,0,0-2,4.59c-.68,3-1.53,8.37-1.53,8.37L13.87,58l11.19.06H37.25l10.68,0,7.42-1.94s-1.57-8.81-2.14-10-1.65-3.9-2.54-4.63S10,43.34,10,43.34Z"/><path class="cls-3" d="M37.5,57.94c0,.16,0,.33-.22.36a.22.22,0,0,1-.27-.21c-.1-.69-.17-1.38-.29-2.07a47.44,47.44,0,0,0-1.06-5,10.33,10.33,0,0,0-1.26-3,1.47,1.47,0,0,0-.84-.61,2.49,2.49,0,0,0-1.74.44A4.32,4.32,0,0,1,33,50a6.88,6.88,0,0,1,.2,1.19.26.26,0,0,1-.19.27c-.15,0-.24-.09-.28-.22a.76.76,0,0,1,0-.21A5.65,5.65,0,0,0,32.1,49a1.91,1.91,0,0,0-2-1.09c-.44,0-.63.25-.49.6A10.91,10.91,0,0,1,30.15,52c.08,1.84,0,3.68,0,5.52,0,.2-.17.39,0,.58-.07.11-.1.28-.27.27s-.22-.15-.27-.27.05-.23.05-.34c0-1.36,0-2.71,0-4.06,0-.37-.1-.5-.46-.44s-.46-.09-.55.23-.32.92-.44,1.38S28,55.9,27.9,56.43c0,.14-.09.23-.24.21s-.12-.15-.12-.25a3.14,3.14,0,0,1,0-.53,14.77,14.77,0,0,1,.68-2.42c.08-.23.06-.36-.23-.36A1.54,1.54,0,0,1,27.5,53c-.29-.11-.42,0-.55.26a20.49,20.49,0,0,0-1.35,3.54,5.61,5.61,0,0,0-.27,1.28c-.1.15-.19.32-.41.22s-.13-.29-.09-.44A18,18,0,0,1,26.55,53c.13-.24.11-.31-.16-.38-.64-.19-1.27-.41-1.91-.62l-.3-.14-1.26-.53a1,1,0,0,0-.41-.15,12.65,12.65,0,0,0-1.45-.68.76.76,0,0,0-.35-.17l-1.28-.63a.76.76,0,0,0-.45-.19,7.73,7.73,0,0,0-1.19-.67,1.15,1.15,0,0,0-.43-.21l-2.14-1.29-.43-.28a10.12,10.12,0,0,0-1.5-.93c-.06-.17-.21-.21-.35-.28a7.5,7.5,0,0,0-1.15-.78.61.61,0,0,0-.34-.29,14.14,14.14,0,0,0-1.22-1c-.07-.13-.15-.16-.23,0s-.18.3-.28.45A10.35,10.35,0,0,0,9,45.71a.38.38,0,0,0,.06.45l.68.94.41.59,1.28,2.21c.11.16.14.36.31.48.3.84.8,1.59,1.14,2.42a2.65,2.65,0,0,0,.33.65l0,.13a.36.36,0,0,1,0,.09c.1.23.2.47.3.74a.32.32,0,0,0,.06-.27c0-.76,0-1.52,0-2.28,0-.14,0-.29.18-.29s.2.13.2.27c.09,1.95.11,3.89.09,5.84,0,.16,0,.36-.24.35s-.23-.2-.22-.37a2.54,2.54,0,0,1,0-.39,6.26,6.26,0,0,0-.93-3.75,2.51,2.51,0,0,0-.28-.57,21.41,21.41,0,0,0-1.28-2.64l-.34-.65c-.32-.62-.71-1.19-1.07-1.78a1.78,1.78,0,0,0-.35-.51,6.4,6.4,0,0,0-.64-1A15.34,15.34,0,0,0,8.31,48c-.65,2.64-1.08,5.31-1.55,8,0,.18,0,.4-.29.36s-.21-.25-.18-.45c.47-2.71.93-5.41,1.58-8.08a12.58,12.58,0,0,1,1.75-4.25c.05-.08.12-.15.05-.28A1.14,1.14,0,0,1,9.92,42a2.41,2.41,0,0,1,.6-.55c.19-.12.2-.22.07-.41A4.61,4.61,0,0,1,10,36.71a5,5,0,0,1,.78-1.42.41.41,0,0,0,.08-.45,3.3,3.3,0,0,1,.65-3.48c.26-.31.54-.6.82-.89a2.86,2.86,0,0,0,.66-3.21,9.51,9.51,0,0,1-.64-2.35,6.23,6.23,0,0,1,1.49-4.85c.47-.58,1-1.13,1.43-1.72a5.12,5.12,0,0,0,1-2.88c.4-6,3.39-10.32,8.71-13a7,7,0,0,1,4.63-.7,3.45,3.45,0,0,1,1.18.44c.1.06.17.11.31,0a5.14,5.14,0,0,1,3.48-.5,10.76,10.76,0,0,1,5.09,2.4,15,15,0,0,1,5.77,9.45c.11.7.18,1.41.22,2.12A5.29,5.29,0,0,0,47,18.85c.36.41.73.81,1.08,1.24a6.41,6.41,0,0,1,1,6.61A6,6,0,0,0,48.68,28a3,3,0,0,0,.88,2.47c.39.4.79.78,1.19,1.17a3.91,3.91,0,0,1,.67,4.88c-.1.16,0,.27,0,.39a5.29,5.29,0,0,1,.44,3.86,1.68,1.68,0,0,1-.07.24c-.23.41-.36.8,0,1.21a.41.41,0,0,1,.06.44.71.71,0,0,0,.19.73,13.48,13.48,0,0,1,1.95,4.81c.62,2.55,1,5.15,1.47,7.74,0,.18,0,.36-.2.39s-.26-.18-.29-.36a79.67,79.67,0,0,0-1.84-9.15c0-.11-.08-.21-.13-.39l-.66,1-.34.51c-.37.61-.76,1.2-1.08,1.84a.86.86,0,0,0-.22.46l-.06.06a.05.05,0,0,0-.06.06l-.52,1.06A9.12,9.12,0,0,0,49.34,53a1.56,1.56,0,0,0-.27.51c-.19.43-.37.87-.57,1.29a4,4,0,0,0-.36,2c0,.31,0,.61,0,.92,0,.16-.07.27-.23.27a.23.23,0,0,1-.24-.21V57.5q0-2.79.09-5.58c0-.15,0-.35.19-.35s.2.22.2.38c0,.78,0,1.56,0,2.35a1.82,1.82,0,0,0,.3-.7,2.92,2.92,0,0,0,.4-.81c.36-.73.72-1.46,1.09-2.19a3.13,3.13,0,0,0,.33-.66l1.31-2.19a3.1,3.1,0,0,0,.41-.59c.24-.33.47-.67.72-1a.38.38,0,0,0,.06-.45A10.17,10.17,0,0,0,52,44.18a1.86,1.86,0,0,0-.33-.51c-.09-.11-.13-.25-.26-.33l-1.09.92-.37.27-1.13.8-.37.27L47,46.6l-.43.28-2.13,1.36-.36.21-1.28.72-.35.18-1.37.74-.43.2a13,13,0,0,0-1.36.64.58.58,0,0,0-.35.15l-1.36.57a.47.47,0,0,0-.28.09h-.06s-.07,0-.09,0a2.65,2.65,0,0,1-.37.12c-.28.05-.34.17-.27.46.32,1.31.52,2.65.74,4C37.33,56.88,37.42,57.41,37.5,57.94ZM26.75,45.46l.44.49a14.4,14.4,0,0,0,1.41,1.51,1.64,1.64,0,0,0,.42.37c.05.06.09.15.19,0a1.58,1.58,0,0,1,1.66-.43c.22.05.3,0,.28-.25a7.61,7.61,0,0,0-.37-1.84c-.48-1.42-1.1-2.77-1.6-4.17a3.36,3.36,0,0,0-1.44-1.81,7.3,7.3,0,0,1-2.85-3.15,2.47,2.47,0,0,1-.12-2.06c.05-.15.11-.36.33-.28s.14.26.09.42a1.75,1.75,0,0,0,.07,1.48,6.89,6.89,0,0,0,.49-2.44c0-.27-.07-.3-.32-.24a2.68,2.68,0,0,0-1.74,1.74c-.12.17-.23.34-.34.51l-.72,1.21a1.53,1.53,0,0,0-.29.47A1.23,1.23,0,0,0,22,38,16.05,16.05,0,0,0,22.38,41c.19.93.38,1.85.66,2.8a9,9,0,0,0,.87-.88.93.93,0,0,0,.28-.28l1.11-1.2a.29.29,0,0,0,.18-.21c.33-.3.65-.62,1-.9a1.28,1.28,0,0,1,1.82.12c.17.18.21.34,0,.48l-.37-.2c-.47-.36-.8-.34-1.28.12a1.37,1.37,0,0,0-.35.33c-.46.43-.88.9-1.31,1.35a.23.23,0,0,0,0,.33A20.1,20.1,0,0,0,26.75,45.46Zm8.85-4.21a1.24,1.24,0,0,0-.37-.35c-.47-.46-.76-.49-1.27-.14l-.37.22c-.29-.16-.24-.32,0-.52a1.3,1.3,0,0,1,1.85-.06c.29.25.55.52.83.78l.34.37a10.13,10.13,0,0,0,1,1.07.86.86,0,0,0,.29.28,5.13,5.13,0,0,0,.92,1A30.75,30.75,0,0,0,39.85,38a1.34,1.34,0,0,0-.34-.9l-.35-.58-.78-1.23a1.26,1.26,0,0,0-.28-.49l-.3-.56a2.2,2.2,0,0,0-1.42-1.1c-.2-.05-.28,0-.27.2A8.68,8.68,0,0,0,36.32,35a1.6,1.6,0,0,0,.32.78,2.32,2.32,0,0,0,0-1.52c-.06-.14-.09-.29.09-.36s.26.06.32.19a1.9,1.9,0,0,1,.14.4,3,3,0,0,1-.53,2.36,8.22,8.22,0,0,1-2.9,2.78,1.78,1.78,0,0,0-.79,1l-1.59,4.48a.61.61,0,0,0-.05.38,8.35,8.35,0,0,1,.32,2.05,4.26,4.26,0,0,1,1.28-.59h.32a.89.89,0,0,0,1.21-.37l.1-.14a1.78,1.78,0,0,0,.43-.55,18.6,18.6,0,0,0,1.89-3,.24.24,0,0,0-.05-.34l-1.2-1.27ZM19.35,28.08s0,0,0,0h0l0,0-.22-.33a3.28,3.28,0,0,1-.62-2.2,4.58,4.58,0,0,1,.83-2.13,11.28,11.28,0,0,0,1-1.64,3.12,3.12,0,0,0,.36-1.39c0-.59-.12-1.18-.12-1.77,0-.15,0-.33-.17-.42a.56.56,0,0,0,0,.12,5.68,5.68,0,0,1-1.23,3.37c-.26.34-.56.67-.83,1a3.53,3.53,0,0,0-.86,3.42A2.75,2.75,0,0,0,19.35,28.08Zm16.3,3.84a.82.82,0,0,0,0-.44c-3.14,2.31-6.29,2.28-9.48,0a11,11,0,0,1-.41,4.42c-.3.3-.25.57,0,.91a8.43,8.43,0,0,0,2.57,2.37,2.31,2.31,0,0,1,1,1.15c.11.29.23.57.34.86.44,1.1.88,2.2,1.33,3.35a1.8,1.8,0,0,0,.1-.24c.4-1.12.84-2.24,1.19-3.38A3.23,3.23,0,0,1,33.83,39a7.43,7.43,0,0,0,2.37-2.33c.08-.12.23-.24.09-.43a4.32,4.32,0,0,1-.56-1.78,19.39,19.39,0,0,1-.08-2.53Zm-14.8-6.76a6.15,6.15,0,0,1-1.15-.88c-.12-.14-.23-.08-.32.08a2.73,2.73,0,0,0-.08,2.71,2.82,2.82,0,0,0,1.08,1.24.29.29,0,0,1,.17.32c0,.17-.18.17-.32.16a3.5,3.5,0,0,1-.45-.07,3.57,3.57,0,0,1-3-3.38,4,4,0,0,1,1-2.75c.28-.36.49-.67.25-1.14a1.43,1.43,0,0,1-.13-.55,2.58,2.58,0,0,1,.55-2.19c.12-.13.38-.29.36-.36s-.33-.06-.5-.12S18,18.14,18,18s.12-.22.25-.27l.33-.1a6.31,6.31,0,0,0,3.53-3.65,6.54,6.54,0,0,0,.59-1.78c0-.14.1-.26.26-.24s.18.18.15.3a4.92,4.92,0,0,1-.14.55,8.78,8.78,0,0,1-2.18,3.9,7.33,7.33,0,0,1-1.61,1.14,5.86,5.86,0,0,0,2.36-.49A6.15,6.15,0,0,0,24.93,14a14,14,0,0,0,.77-2.54,8.35,8.35,0,0,1,1.06-2.84A2.36,2.36,0,0,1,28.92,7.5a2.5,2.5,0,0,1,1.78.92c.19.22.25.15.39,0a2.27,2.27,0,0,1,1.78-1A2.43,2.43,0,0,1,35,8.66a6.8,6.8,0,0,1,.92,2.74A10.75,10.75,0,0,0,37.07,15a6.15,6.15,0,0,0,3.38,2.78,4.78,4.78,0,0,0,2.54,0,5.93,5.93,0,0,1-2.45-2A10.18,10.18,0,0,1,39,12.34c0-.15-.09-.34.1-.41s.25.16.28.29a8.15,8.15,0,0,0,.53,1.58A7.14,7.14,0,0,0,42.28,17a3.87,3.87,0,0,0,1.56.63c.17,0,.35.06.36.27s-.18.25-.34.29-.36.11-.55.15-.19.07-.08.19a2.94,2.94,0,0,1,.54,3,.83.83,0,0,0,.24,1,1.38,1.38,0,0,1,.29.41,3.66,3.66,0,0,1,0,4.4,3.41,3.41,0,0,1-2.76,1.45c-.13,0-.25,0-.29-.15a.25.25,0,0,1,.13-.3,3.35,3.35,0,0,0,.68-.62,2.9,2.9,0,0,0,.37-3.4c-.1-.16-.17-.18-.29,0a5.82,5.82,0,0,1-.91.73c-.25.07-.5.14-.75.19s-.21.11-.27.26a10.08,10.08,0,0,1-1.42,3,12.81,12.81,0,0,1-2.05,2.24c-.17.15-.46.22-.48.49a7.45,7.45,0,0,0-.09,1.06.34.34,0,0,0,.31.38,2.62,2.62,0,0,1,1.68,1.2c.56.91,1.06,1.85,1.64,2.74a.5.5,0,0,0,.51.27,3.68,3.68,0,0,1,1.7.28c.44.18.48.16.43-.32a.86.86,0,0,0,0-.17A4.86,4.86,0,0,0,41,34.4a4.05,4.05,0,0,1-.93-3.85c0-.23.19-.32.42-.19a2.38,2.38,0,0,1,0,.46,3.89,3.89,0,0,0-.07,1.4,4.45,4.45,0,0,0,1.35,2.41,3.66,3.66,0,0,1,1.11,2.61.33.33,0,0,0,.23.34c1.08.51,2.2.94,3.3,1.4.3.12.42,0,.5-.23A3.62,3.62,0,0,0,47,36.59a5.89,5.89,0,0,0-1.23-2.18,4.81,4.81,0,0,1-1.23-3.6,3.12,3.12,0,0,1,.2-1c0-.09.1-.17.22-.14a.17.17,0,0,1,.14.21,1.33,1.33,0,0,1,0,.28,4.32,4.32,0,0,0,.21,2.75,12,12,0,0,0,1.26,1.84,4.34,4.34,0,0,1,.72,4.33c-.07.17,0,.21.13.28A18.29,18.29,0,0,1,51,41.18c.14.1.2.06.26-.08a3.3,3.3,0,0,0,.36-1.44,5.93,5.93,0,0,0-1.3-3.74A29.91,29.91,0,0,1,48,32.86a4.56,4.56,0,0,1-.4-3.59c.31-1.1.87-2.09,1.18-3.19a6.1,6.1,0,0,0-.07-4,8.23,8.23,0,0,0-1.84-2.67,6.26,6.26,0,0,1-1.61-2.87c-.22-.92-.18-1.86-.33-2.78a14.13,14.13,0,0,0-1.28-4.11,15.16,15.16,0,0,0-3.52-4.55,13,13,0,0,0-3.93-2.5,5.68,5.68,0,0,0-4.39-.26,2,2,0,0,1-1.8,0,5.26,5.26,0,0,0-3.88.1,14.05,14.05,0,0,0-6.73,5.19A14.17,14.17,0,0,0,17,13c-.24,1-.24,2.11-.39,3.15a5.31,5.31,0,0,1-1.12,2.65,20.75,20.75,0,0,0-1.95,2.43,5.92,5.92,0,0,0-.84,2.57,7.31,7.31,0,0,0,.56,3.09,20.73,20.73,0,0,1,1,2.79,3.67,3.67,0,0,1-.61,3.06c-.41.57-.93,1-1.39,1.56s-.87.81-1.22,1.3A4.26,4.26,0,0,0,11,40.73c.09.14.19.19.35.09a19.66,19.66,0,0,1,3.09-1.43c.23-.08.25-.17.16-.39a3.61,3.61,0,0,1,0-2.88,7.61,7.61,0,0,1,1.14-1.92,4.36,4.36,0,0,0,1-4.22c0-.16,0-.26.14-.31s.25.11.29.23a4.54,4.54,0,0,1-.44,3.6c-.43.71-1,1.33-1.41,2A3.73,3.73,0,0,0,15,38.88c.07.22.18.23.36.15l3.46-1.47a.42.42,0,0,0,.29-.46,2.72,2.72,0,0,1,.6-1.86,12,12,0,0,1,.95-1.18,3.7,3.7,0,0,0,.82-3.25.93.93,0,0,1,0-.52c.21,0,.37,0,.41.25A5.09,5.09,0,0,1,21.71,33a6.43,6.43,0,0,1-1.37,2,2.88,2.88,0,0,0-.85,1.9c0,.23.06.3.29.21a4,4,0,0,1,1.8-.3.49.49,0,0,0,.48-.3c.56-.86,1.05-1.77,1.58-2.64a2.54,2.54,0,0,1,1.75-1.27c.22,0,.33-.15.3-.39s-.06-.59-.07-.88a.43.43,0,0,0-.17-.36,14.83,14.83,0,0,1-2.24-2.31,9.55,9.55,0,0,1-1.53-3.1c0-.14,0-.33-.24-.36ZM25,15.05a7.12,7.12,0,0,1,2.06.06,3.63,3.63,0,0,1,1.07.35c.17.09.31.21.23.42s-.26.18-.43.15l-.14,0a8.1,8.1,0,0,0-3.06-.24.64.64,0,0,0-.41.22,6.71,6.71,0,0,1-3,2c-.26.08-.29.2-.27.42.08,1,.16,1.91.27,2.87a21.84,21.84,0,0,0,1,4.47,10.88,10.88,0,0,0,6.69,6.69,5.29,5.29,0,0,0,3.31.21,9.9,9.9,0,0,0,3.23-1.53,10.29,10.29,0,0,0,3.79-4.47,24.94,24.94,0,0,0,1.56-8c0-.19-.08-.23-.24-.27a5.47,5.47,0,0,1-3.09-2A1.51,1.51,0,0,0,36,15.69l-.32,0A9.56,9.56,0,0,0,34,16c-.16,0-.35.06-.43-.14a.33.33,0,0,1,.21-.43,2.3,2.3,0,0,1,.49-.2A7.47,7.47,0,0,1,36.5,15a9.32,9.32,0,0,1-.7-1.77c-.29-1-.4-2.07-.7-3.08a.73.73,0,0,0-.41-.5,5.31,5.31,0,0,0-3.53-.41,1,1,0,0,1-.49,0,5.4,5.4,0,0,0-3,.1,1.77,1.77,0,0,0-1.32,1.43A14,14,0,0,1,25,15.05Zm4.23,37.68c.5,0,.5,0,.5-.42a1.47,1.47,0,0,1,0-.21c0-.25-.07-.34-.33-.39a15.89,15.89,0,0,1-3.61-1.24,26,26,0,0,1-4.1-2.42,10.1,10.1,0,0,1-1.39-1.15c-.08-.09-.17-.18-.06-.31s.2,0,.29,0a.71.71,0,0,1,.14.1,23.09,23.09,0,0,0,6,3.69,20.15,20.15,0,0,0,2.65.9c.32.09.43,0,.38-.32s0-.47-.08-.7a3.17,3.17,0,0,0-.93-2.19,19.62,19.62,0,0,1-3.91-4.66c-.15-.24-.25-.26-.45-.05a7.91,7.91,0,0,1-1.11,1.05c-.25.18-.4.14-.51-.14a2.17,2.17,0,0,1-.07-.24c-.33-1.39-.68-2.77-.9-4.19a6.63,6.63,0,0,1-.11-2.35c0-.15,0-.22-.18-.23a2.47,2.47,0,0,0-.9.16c-1,.33-2,.84-3,1.26a54.09,54.09,0,0,0-5.69,2.48,4.27,4.27,0,0,0-1.55,1.21.57.57,0,0,0,.14.87c.19.14.34.31.51.44,1.26,1,2.54,1.9,3.87,2.76a57.37,57.37,0,0,0,6.61,3.64A42.75,42.75,0,0,0,27,52.34,11.07,11.07,0,0,0,29.18,52.73ZM40.3,38.32a4.64,4.64,0,0,1-.09,1.21c-.26,1.55-.58,3.08-1,4.6-.13.47-.32.53-.68.18s-.61-.6-.91-.9-.33-.33-.55.06c-.07.12-.15.24-.22.37a15.53,15.53,0,0,1-2.31,3.26c-.12.12-.17.2,0,.34a2.47,2.47,0,0,1,.55.77c.13.28.26.35.56.15a27.4,27.4,0,0,0,4.79-3.93,14.48,14.48,0,0,0,1-1.17c.09-.12.21-.21.36-.12s.06.25,0,.37a.76.76,0,0,1-.11.14,23.06,23.06,0,0,1-2.12,2.19c-.55.46-1.09.94-1.65,1.4a26.38,26.38,0,0,1-2.24,1.56c-.37.23-.06.46,0,.67s.24.11.37.07a25.49,25.49,0,0,0,2.38-.93,25.24,25.24,0,0,0,4.17-2.36c.44-.3.86-.61,1.3-.92.11-.07.21-.1.31,0s0,.19-.06.27l-.13.12a26.77,26.77,0,0,1-3.89,2.49,25,25,0,0,1-4,1.73c-.2.06-.26.13-.18.34s.21.63.3.95.14.28.37.2Q38,51,39.35,50.35a53.39,53.39,0,0,0,7.47-4.24,47.22,47.22,0,0,0,4.39-3.19.47.47,0,0,0,0-.78,4.87,4.87,0,0,0-.89-.81,16.28,16.28,0,0,0-2.62-1.28c-1.6-.67-3.24-1.25-4.82-2a7.26,7.26,0,0,0-2.27-.77c-.23,0-.46-.09-.37.3A3.54,3.54,0,0,1,40.3,38.32Zm8-9.39a.71.71,0,0,0-.1.14,4.41,4.41,0,0,0,.42,3.85c.68,1.11,1.65,2,2.38,3.08.14.21.21,0,.26-.09a3.48,3.48,0,0,0,0-2.81,5.09,5.09,0,0,0-1.27-1.61A4.38,4.38,0,0,1,48.27,28.93Zm-5.74-.85a2.85,2.85,0,0,0,1.11-.69A3.35,3.35,0,0,0,44,23.31c-.44-.68-1-1.23-1.48-1.9a5,5,0,0,1-1-2.62c0-.12,0-.25-.16-.31a6.45,6.45,0,0,0-.15,1.21,3.82,3.82,0,0,0,.09,1.58,10,10,0,0,0,1.28,2.33,3.63,3.63,0,0,1,.28,3.89c-.1.18-.31.3-.31.59Zm-28.92.86c-.12.33-.17.61-.28.87a6.66,6.66,0,0,1-1.39,1.73,3,3,0,0,0-.79,2.78c.06.25.12.22.29.08A16.2,16.2,0,0,0,13,32.85a3.51,3.51,0,0,0,.62-3.91Zm29.64-7.35a2.93,2.93,0,0,0,0-2.1,1.6,1.6,0,0,0-1.12-.95c-.13,0-.25-.06-.23.16A5.18,5.18,0,0,0,43.25,21.59Zm-24.68,0a5.28,5.28,0,0,0,1.27-2.85c0-.16,0-.26-.2-.2a1.56,1.56,0,0,0-1,.75,2.76,2.76,0,0,0,0,2.3Zm2.27.16a11.26,11.26,0,0,1-.92,1.67c-.06.09-.18.18-.07.31a2.5,2.5,0,0,0,1.41.95c.14,0,.18,0,.15-.13a27.48,27.48,0,0,1-.57-2.79Zm20.13,0a21.67,21.67,0,0,1-.52,2.62c-.06.23,0,.33.25.25a3,3,0,0,0,1.24-.91c.09-.09,0-.17,0-.25a11.5,11.5,0,0,1-1-1.71ZM33,7.91a1.63,1.63,0,0,0-1.13.38c-.07.07-.24.09-.18.26s.19.16.32.15A6.44,6.44,0,0,1,34.26,9c.08,0,.17.06.23,0s0-.14-.06-.2A2,2,0,0,0,33,7.91Zm-2.81.78a1.82,1.82,0,0,0-2.64-.26c-.07.08-.21.13-.11.29a.27.27,0,0,0,.34.13,6.07,6.07,0,0,1,2.41-.15Z"/><path class="cls-4" d="M30.16,58.07c-.15-.2,0-.39,0-.58,0-1.84.05-3.68,0-5.52a11.21,11.21,0,0,0-.5-3.49c-.13-.36.06-.56.5-.6A1.91,1.91,0,0,1,32.11,49a5.46,5.46,0,0,1,.63,2.08,1.46,1.46,0,0,0,0,.22c0,.13.13.24.28.21a.24.24,0,0,0,.19-.27A5.82,5.82,0,0,0,33,50a4.33,4.33,0,0,0-1.21-2.16,2.44,2.44,0,0,1,1.73-.43,1.41,1.41,0,0,1,.84.61,10.27,10.27,0,0,1,1.26,3,45.23,45.23,0,0,1,1.06,5c.12.68.2,1.37.29,2.06H30.16Z"/><path class="cls-4" d="M25.33,58.06a6.11,6.11,0,0,1,.27-1.27A20.22,20.22,0,0,1,27,53.25c.12-.26.25-.38.55-.27a1.78,1.78,0,0,0,.51.1c.29,0,.32.12.23.35a14.57,14.57,0,0,0-.67,2.43,3.08,3.08,0,0,0,0,.53c0,.1,0,.23.13.25s.2-.08.23-.21c.11-.53.2-1.07.34-1.59s.31-.92.44-1.38.35-.21.56-.24.46.08.45.45c0,1.35,0,2.7,0,4,0,.12,0,.24-.05.34Z"/><path class="cls-5" d="M46.56,46.88,47,46.6c0,.57,0,1.14,0,1.71,0,1.45-.07,2.89,0,4.34.05,1.6,0,3.2,0,4.8a2.81,2.81,0,0,1,0,.29.15.15,0,0,1-.15.13c-.09,0-.17,0-.18-.13a2.64,2.64,0,0,1,0-.28c0-1.84,0-3.68,0-5.52,0-1.58.07-3.15,0-4.73C46.62,47.1,46.68,47,46.56,46.88Z"/><path class="cls-6" d="M14.8,47.09l.43.28c-.13.11-.07.27-.07.4.07,2.13.05,4.27,0,6.4,0,1.06,0,2.11,0,3.17,0,.17.13.49-.14.5s-.19-.33-.19-.51c.06-2.56,0-5.12,0-7.68C14.85,48.79,14.82,47.94,14.8,47.09Z"/><path class="cls-5" d="M17.37,48.65a1.13,1.13,0,0,1,.42.22c-.13.08-.08.21-.09.32V51l-.06,6.51c0,.14.08.36-.14.37s-.2-.22-.2-.38q0-3.75.05-7.5C17.35,49.55,17.36,49.1,17.37,48.65Z"/><path class="cls-6" d="M52.06,47.89l.34-.51.93,5.68c.18,1.08.34,2.17.52,3.25,0,.15.08.31-.13.33s-.17-.15-.19-.27c-.3-1.86-.61-3.71-.91-5.57-.14-.9-.29-1.8-.44-2.69A.3.3,0,0,0,52.06,47.89Z"/><path class="cls-5" d="M9.38,47.37a1.46,1.46,0,0,1,.35.51,7.8,7.8,0,0,0-.34,1.65c-.35,2-.67,4-1,6,0,.27-.06.54-.11.81,0,.11,0,.28-.23.25s-.13-.18-.11-.31c.18-1.15.37-2.31.55-3.46.28-1.78.55-3.55.89-5.32A1.08,1.08,0,0,0,9.38,47.37Z"/><path class="cls-5" d="M19,49.53a.87.87,0,0,1,.44.19c-.13.08-.09.21-.09.32l-.06,7.44v.25a.18.18,0,0,1-.18.18c-.11,0-.16-.09-.17-.2V57.5c0-2.22,0-4.44,0-6.66C18.94,50.41,19,50,19,49.53Z"/><path class="cls-6" d="M42.45,49.35l.34-.18.06,8.18v.25c0,.14,0,.31-.19.3s-.16-.17-.16-.3c0-1.15,0-2.3,0-3.45C42.43,52.55,42.46,51,42.45,49.35Z"/><path class="cls-6" d="M44.07,48.45l.36-.21c0,.08,0,.16,0,.25,0,3,0,5.93,0,8.89,0,.17.11.46-.17.46s-.17-.28-.17-.44q0-4.14,0-8.26A4,4,0,0,0,44.07,48.45Z"/><path class="cls-5" d="M48.48,45.6l.37-.27v7.16c0,.1,0,.21.06.3a2.94,2.94,0,0,1-.41.81c0-2.64,0-5.27,0-7.91C48.52,45.66,48.49,45.63,48.48,45.6Z"/><path class="cls-6" d="M40.64,50.29l.43-.2c0,1.47,0,2.94,0,4.41,0,1,0,2,0,3a2.62,2.62,0,0,1,0,.28.18.18,0,0,1-.18.19c-.11,0-.16-.08-.16-.19v-.21q0-3.42-.07-6.84C40.72,50.56,40.78,50.4,40.64,50.29Z"/><path class="cls-6" d="M10.8,49.66l.35.65a5.09,5.09,0,0,0-.27,1.45c-.26,1.66-.49,3.32-.74,5l0,.14c0,.12,0,.28-.23.25s-.15-.19-.13-.31c.1-.69.21-1.38.32-2.07L10.79,50A2.17,2.17,0,0,0,10.8,49.66Z"/><path class="cls-5" d="M13.21,53.44a2.49,2.49,0,0,1-.33-.65c.09-.12,0-.25,0-.38,0-2.18,0-4.35,0-6.53.13.07.29.11.35.28,0,1.67,0,3.33,0,5,0,.66,0,1.32,0,2C13.28,53.24,13.31,53.36,13.21,53.44Z"/><path class="cls-5" d="M20.72,50.36a.76.76,0,0,1,.34.16c0,.79,0,1.57,0,2.35L21,57.61c0,.13.06.33-.17.31s-.17-.2-.17-.34c0-.67,0-1.35,0-2Z"/><path class="cls-6" d="M50.76,50.19c0-.19.13-.31.22-.46.18,1.17.35,2.34.53,3.51s.36,2.41.53,3.61c0,.12,0,.26-.14.29s-.19-.09-.21-.22c-.14-.94-.27-1.87-.41-2.81s-.3-1.92-.45-2.87A9.41,9.41,0,0,1,50.76,50.19Z"/><path class="cls-5" d="M38.93,51.08a.61.61,0,0,1,.36-.15,1.61,1.61,0,0,1,.07.49c0,2,0,4.11,0,6.16a1.48,1.48,0,0,1,0,.21c0,.09,0,.17-.14.18a.18.18,0,0,1-.18-.15,1.15,1.15,0,0,1,0-.32l0-6.09C39,51.3,39,51.17,38.93,51.08Z"/><path class="cls-5" d="M22.51,51.2a1.08,1.08,0,0,1,.42.16c-.24,0-.15.25-.15.38l0,5.73c0,.18.08.47-.17.47s-.17-.29-.17-.45c0-1.62,0-3.25,0-4.87C22.43,52.14,22.48,51.67,22.51,51.2Z"/><path class="cls-6" d="M37.3,51.74a.47.47,0,0,1,.28-.09c0,.78,0,1.57,0,2.35,0,1.2.07,2.39,0,3.59,0,.13,0,.27-.1.36-.08-.54-.17-1.07-.25-1.6a.6.6,0,0,0,0-.35Z"/><path class="cls-6" d="M24.19,51.88l.29.14c0,1.88,0,3.75,0,5.62,0,.12,0,.3-.17.28s-.14-.2-.14-.32C24.18,55.7,24.18,53.79,24.19,51.88Z"/><path class="cls-5" d="M12.44,52.94a2.51,2.51,0,0,1,.28.57,12.24,12.24,0,0,0-.28,1.8c-.09.69-.16,1.38-.25,2.07,0,.13,0,.29-.22.25s-.16-.17-.14-.31c.18-1.37.35-2.74.54-4.11A2.68,2.68,0,0,1,12.44,52.94Z"/><path class="cls-5" d="M49.07,53.52a1.41,1.41,0,0,1,.28-.51,7.86,7.86,0,0,1,.26,1.66c.13.87.22,1.74.33,2.6,0,.15.08.31-.11.35s-.2-.15-.22-.28c-.14-1.06-.27-2.11-.41-3.16C49.17,54,49.12,53.74,49.07,53.52Z"/><path class="cls-7" d="M50.76,50.19a9.08,9.08,0,0,0,.07,1c-.26,0-.45.22-.71.14l.52-1.06s.07,0,.06-.06Z"/><path class="cls-5" d="M13.29,53.66l0-.09a.06.06,0,0,1,0,.08Z"/><path class="cls-8" d="M21.42,30.29a.89.89,0,0,0,0,.51,3.69,3.69,0,0,1-.82,3.25,13.38,13.38,0,0,0-.95,1.19,2.83,2.83,0,0,0-.6,1.86.38.38,0,0,1-.29.45L15.31,39c-.18.08-.28.07-.36-.15a3.79,3.79,0,0,1,.32-3.34c.42-.71,1-1.33,1.41-2a4.54,4.54,0,0,0,.44-3.6c0-.13-.09-.3-.29-.23s-.18.14-.13.31a4.39,4.39,0,0,1-1,4.22,7.31,7.31,0,0,0-1.15,1.91,3.59,3.59,0,0,0,0,2.89c.09.22.07.3-.16.39a19.66,19.66,0,0,0-3.09,1.43c-.16.09-.26,0-.35-.1a4.26,4.26,0,0,1,.14-5.16c.35-.48.83-.85,1.22-1.29s1-1,1.39-1.56a3.69,3.69,0,0,0,.61-3.07,20.59,20.59,0,0,0-1-2.78,7.31,7.31,0,0,1-.56-3.09,5.92,5.92,0,0,1,.84-2.57,20.75,20.75,0,0,1,1.95-2.43,5.48,5.48,0,0,0,1.12-2.65c.15-1.05.15-2.11.39-3.16a14.19,14.19,0,0,1,2.38-5.3,14.05,14.05,0,0,1,6.73-5.19A5.21,5.21,0,0,1,30,2.37a2.07,2.07,0,0,0,1.8,0,5.66,5.66,0,0,1,4.38.26,13.17,13.17,0,0,1,3.94,2.5,14.85,14.85,0,0,1,3.51,4.55,13.76,13.76,0,0,1,1.29,4.11c.14.92.11,1.86.33,2.77a6.25,6.25,0,0,0,1.61,2.88,8.23,8.23,0,0,1,1.84,2.67,6.21,6.21,0,0,1,.07,3.95c-.31,1.1-.87,2.1-1.18,3.2a4.56,4.56,0,0,0,.4,3.59,29.81,29.81,0,0,0,2.3,3.06,5.86,5.86,0,0,1,1.31,3.74,3.22,3.22,0,0,1-.36,1.43c-.06.14-.12.18-.26.08a18.29,18.29,0,0,0-3.65-1.82c-.15-.07-.19-.11-.13-.28a4.34,4.34,0,0,0-.72-4.33,11.93,11.93,0,0,1-1.25-1.84A4.25,4.25,0,0,1,45,30.15a2.36,2.36,0,0,0,0-.28.19.19,0,0,0-.15-.21c-.11,0-.17.05-.22.14a3.12,3.12,0,0,0-.2,1,4.82,4.82,0,0,0,1.23,3.6A5.89,5.89,0,0,1,47,36.58a3.62,3.62,0,0,1-.07,2.16c-.08.26-.2.35-.5.23-1.1-.46-2.22-.89-3.3-1.4a.33.33,0,0,1-.23-.34,3.7,3.7,0,0,0-1.1-2.61,4.3,4.3,0,0,1-1.35-2.4,3.72,3.72,0,0,1,.06-1.41,2.28,2.28,0,0,0,0-.45c0-.11,0-.21.05-.32.21-.76.46-1.51.63-2.28a4.53,4.53,0,0,0,0-2.75,5.82,5.82,0,0,0,.91-.73c.11-.14.19-.12.29,0a2.9,2.9,0,0,1-.37,3.4,3.63,3.63,0,0,1-.68.62.25.25,0,0,0-.13.3c0,.15.17.15.28.15a3.38,3.38,0,0,0,2.76-1.45,3.66,3.66,0,0,0,0-4.41,1.74,1.74,0,0,0-.28-.41c-.37-.28-.37-.59-.25-1a2.88,2.88,0,0,0-.54-3c-.11-.12-.07-.17.08-.2a4.92,4.92,0,0,0,.55-.14c.16,0,.35-.07.34-.29s-.19-.25-.35-.27A3.85,3.85,0,0,1,42.28,17a7.12,7.12,0,0,1-2.41-3.19,7.84,7.84,0,0,1-.53-1.57c0-.14-.05-.36-.27-.29s-.15.26-.11.41a10.18,10.18,0,0,0,1.59,3.5,5.92,5.92,0,0,0,2.45,2,4.71,4.71,0,0,1-2.55,0A6.09,6.09,0,0,1,37.07,15a11,11,0,0,1-1.19-3.62A6.8,6.8,0,0,0,35,8.65a2.43,2.43,0,0,0-2.08-1.22,2.23,2.23,0,0,0-1.79,1c-.13.19-.19.25-.39,0a2.53,2.53,0,0,0-1.78-.93,2.38,2.38,0,0,0-2.16,1.13,8.48,8.48,0,0,0-1.06,2.84A14,14,0,0,1,24.93,14a6.15,6.15,0,0,1-3.38,3.32,6,6,0,0,1-2.35.49,7.26,7.26,0,0,0,1.6-1.14A8.8,8.8,0,0,0,23,12.78c.05-.19.11-.37.14-.55s0-.29-.15-.31a.24.24,0,0,0-.26.24A6.6,6.6,0,0,1,22.12,14a6.29,6.29,0,0,1-3.53,3.64c-.11.05-.22.07-.33.11S18,17.79,18,18s.15.22.28.27.42-.09.5.13c0,.06-.24.22-.36.35a2.61,2.61,0,0,0-.55,2.2,1.43,1.43,0,0,0,.13.54c.24.47,0,.79-.25,1.14a4,4,0,0,0-1,2.75,3.58,3.58,0,0,0,3,3.39c.15,0,.3.05.45.06s.28,0,.32-.16a.29.29,0,0,0-.17-.32,2.77,2.77,0,0,1-1.08-1.24,2.71,2.71,0,0,1,.08-2.7c.09-.17.2-.23.32-.08a5.71,5.71,0,0,0,1.15.87c-.05.3-.12.6-.14.9A10,10,0,0,0,21,29.14,3.1,3.1,0,0,0,21.42,30.29ZM34.08,5.84a2.94,2.94,0,0,0-1.22.22c-.12,0-.2.09-.17.23s.15.14.26.13l.2-.06a2.9,2.9,0,0,1,1.6-.05A4.15,4.15,0,0,1,37.1,8c.09.12.18.31.35.18s.06-.29,0-.41A4.28,4.28,0,0,0,34.08,5.84Zm-6,0A4.18,4.18,0,0,0,24.65,7.7c-.09.13-.29.3-.08.45s.29-.1.4-.23l0-.06a3.65,3.65,0,0,1,4-1.48c.12,0,.27.11.33-.07s-.08-.23-.2-.28a2.51,2.51,0,0,0-1.05-.19Zm3-.47h0V3.74c0-.12.06-.29-.14-.3s-.21.14-.21.29V7c0,.14,0,.29.17.3s.18-.15.18-.29Z"/><path class="cls-9" d="M25,15.05a14,14,0,0,0,1.42-4.29,1.77,1.77,0,0,1,1.32-1.43,5.4,5.4,0,0,1,3-.1,1,1,0,0,0,.49,0,5.32,5.32,0,0,1,3.53.41.77.77,0,0,1,.41.5c.3,1,.4,2.06.69,3.08A10.07,10.07,0,0,0,36.5,15a7.43,7.43,0,0,0-2.28.27,2.3,2.3,0,0,0-.49.2c-.16.08-.3.22-.21.43s.27.17.43.13a10.56,10.56,0,0,1,1.68-.3c.1,0,.21,0,.31,0a1.52,1.52,0,0,1,1.54.66,5.43,5.43,0,0,0,3.09,2c.17,0,.25.08.23.27a24.67,24.67,0,0,1-1.55,8,10.25,10.25,0,0,1-3.8,4.47,9.75,9.75,0,0,1-3.22,1.53,5.32,5.32,0,0,1-3.32-.21,10.89,10.89,0,0,1-6.68-6.69,21.84,21.84,0,0,1-1-4.47c-.12-1-.2-1.91-.28-2.87,0-.23,0-.34.28-.42a6.71,6.71,0,0,0,3-2,.6.6,0,0,1,.41-.22,8.09,8.09,0,0,1,3.06.24l.14,0c.17,0,.35,0,.43-.15s-.06-.33-.23-.42A3.34,3.34,0,0,0,27,15.11,6.71,6.71,0,0,0,25,15.05Zm6.51,11.32a1.59,1.59,0,0,1-1.21,0,4.71,4.71,0,0,0-2,.36,1.17,1.17,0,0,1-.51-.28.19.19,0,0,0-.28,0l0,0a.19.19,0,0,0,0,.26l0,0,.49.33a2.1,2.1,0,0,0,.65.77A4,4,0,0,0,33,28a1.66,1.66,0,0,0,.76-.89l.55-.32a.22.22,0,0,0,.07-.34c-.09-.13-.21-.08-.31,0a1.6,1.6,0,0,1-.49.28A13.65,13.65,0,0,0,32,26.31H31.6A.13.13,0,0,0,31.46,26.37Zm2.14-6.29a2.31,2.31,0,0,0,.78.36,1.72,1.72,0,0,0,1,.16,1.5,1.5,0,0,0,1.06-.09s.08.08.11.07a3.61,3.61,0,0,0,1.9-1.06,1.47,1.47,0,0,0,.8-.08c.12-.05.25-.12.22-.28s-.2-.16-.32-.12c-.34.12-.51-.06-.67-.32a1,1,0,0,0,.36-.27.21.21,0,0,0,0-.26.16.16,0,0,0-.22,0h0c-.34.32-.64.15-1,0a3,3,0,0,0-4.1,1.44C33.44,19.78,33.37,20,33.6,20.08Zm-5.55,0c.37-.08.4-.15.25-.5a3,3,0,0,0-4.21-1.39c-.3.17-.55.24-.83,0-.08-.07-.19-.12-.29,0s0,.22.07.31a.7.7,0,0,0,.19.15c.15.06.09.12,0,.2a.45.45,0,0,1-.58.19c-.12-.05-.27-.05-.31.12s.08.22.19.26a3.19,3.19,0,0,0,.44.13l.18,0,.22-.08a3.44,3.44,0,0,0,1.66,1c.11,0,.23.12.35,0a1.61,1.61,0,0,0,1.06.05,2,2,0,0,0,1.59-.5Zm2.43.81v-.42c0-.15,0-.32-.2-.31s-.17.18-.18.32a6.85,6.85,0,0,1-.4,2.29,1.3,1.3,0,0,0,1.22,1.73c.11,0,.21,0,.25-.15s-.06-.22-.18-.26-.2,0-.3-.08c-.65-.22-.8-.53-.59-1.18a6.37,6.37,0,0,0,.38-1.94Z"/><path class="cls-10" d="M29.18,52.73a11.85,11.85,0,0,1-2.2-.39,44.12,44.12,0,0,1-5.64-2.24,57.44,57.44,0,0,1-6.61-3.65c-1.34-.85-2.61-1.79-3.87-2.76-.18-.13-.33-.3-.51-.44a.56.56,0,0,1-.14-.86,4.19,4.19,0,0,1,1.55-1.22,50.39,50.39,0,0,1,5.69-2.47c1-.43,2-.94,3-1.27a2.51,2.51,0,0,1,.9-.16c.16,0,.21.08.18.22a6.68,6.68,0,0,0,.11,2.36c.22,1.41.58,2.8.9,4.19a2.25,2.25,0,0,0,.08.24c.11.28.26.32.51.14a8.42,8.42,0,0,0,1.1-1.05c.2-.21.3-.19.45.05a19.57,19.57,0,0,0,3.91,4.65,3.27,3.27,0,0,1,.94,2.2c0,.23,0,.47.07.7s-.05.41-.38.32a20.66,20.66,0,0,1-2.65-.9,22.87,22.87,0,0,1-5.95-3.69l-.15-.1c-.09-.06-.19-.11-.29,0s0,.22.07.31a9,9,0,0,0,1.39,1.15,25.43,25.43,0,0,0,4.09,2.42,15.89,15.89,0,0,0,3.61,1.24c.26,0,.36.14.33.39a1.47,1.47,0,0,0,0,.21C29.68,52.73,29.68,52.73,29.18,52.73ZM27.59,49c0-.09-.06-.18-.24-.3a20.9,20.9,0,0,1-2.9-2.5c-.16-.16-.24-.38-.45-.5s-.17-.11-.25,0a.21.21,0,0,0,0,.27l.16.18a16.92,16.92,0,0,0,2.07,2,9.65,9.65,0,0,0,1.31,1c.18.11.25,0,.32-.1Z"/><path class="cls-10" d="M40.3,38.32a3.46,3.46,0,0,0,0-.73c-.1-.4.14-.34.36-.31a7.28,7.28,0,0,1,2.27.78c1.58.74,3.22,1.32,4.83,2a16.18,16.18,0,0,1,2.61,1.28,5.29,5.29,0,0,1,.89.81.47.47,0,0,1,0,.78,47.08,47.08,0,0,1-4.38,3.19,54.07,54.07,0,0,1-7.48,4.24c-.89.41-1.8.78-2.72,1.11-.24.08-.32,0-.38-.2s-.18-.64-.29-.95,0-.28.18-.35a23.63,23.63,0,0,0,4-1.72A28,28,0,0,0,44,45.75a.8.8,0,0,0,.13-.13c.07-.07.17-.14.07-.26a.2.2,0,0,0-.32,0c-.43.3-.86.62-1.3.92a26.31,26.31,0,0,1-4.17,2.36,24.45,24.45,0,0,1-2.38.93c-.12,0-.31.19-.36-.07s-.36-.44,0-.67a21.92,21.92,0,0,0,2.24-1.57c.56-.45,1.1-.93,1.65-1.39a21.89,21.89,0,0,0,2.12-2.19l.12-.14c.06-.12.18-.25,0-.37s-.27,0-.37.12a14.36,14.36,0,0,1-1,1.17,27.84,27.84,0,0,1-4.8,3.93c-.29.2-.43.14-.56-.14a2.13,2.13,0,0,0-.55-.78c-.15-.14-.09-.22,0-.34a15.57,15.57,0,0,0,2.32-3.26l.21-.37c.23-.39.23-.39.56-.06l.9.9c.36.35.56.29.68-.18.4-1.52.73-3.05,1-4.6A4.64,4.64,0,0,0,40.3,38.32Z"/><path class="cls-9" d="M35.65,31.92a19.45,19.45,0,0,0,.08,2.53,4.23,4.23,0,0,0,.56,1.77c.14.2,0,.31-.09.44A7.39,7.39,0,0,1,33.83,39a3.24,3.24,0,0,0-1.53,2c-.35,1.14-.79,2.25-1.19,3.38,0,.06-.05.12-.1.23l-1.33-3.35-.34-.85a2.33,2.33,0,0,0-1-1.15,8.51,8.51,0,0,1-2.56-2.37c-.25-.33-.3-.61,0-.91a2.7,2.7,0,0,0,.41.07,12.42,12.42,0,0,0,3-.2A12.23,12.23,0,0,0,33.46,34,11.51,11.51,0,0,0,35.65,31.92Z"/><path class="cls-11" d="M41.22,25a4.61,4.61,0,0,1,0,2.75c-.18.77-.42,1.52-.63,2.29a1.54,1.54,0,0,0-.05.31c-.23-.14-.37,0-.42.18A4,4,0,0,0,41,34.39a5,5,0,0,1,1.38,2.23l0,.18c0,.48,0,.5-.43.32a3.68,3.68,0,0,0-1.7-.28.49.49,0,0,1-.51-.27c-.59-.89-1.09-1.83-1.64-2.74a2.61,2.61,0,0,0-1.69-1.2.34.34,0,0,1-.31-.38,9.28,9.28,0,0,1,.09-1.06c0-.27.31-.34.48-.49a12.87,12.87,0,0,0,2.06-2.24,10.06,10.06,0,0,0,1.41-3c.06-.15.11-.23.27-.26A6.49,6.49,0,0,0,41.22,25Z"/><path class="cls-11" d="M21.42,30.29a3.09,3.09,0,0,1-.4-1.16,9.67,9.67,0,0,1-.31-3.08c0-.3.09-.6.14-.9l.59.08c.2,0,.2.22.25.36a9.33,9.33,0,0,0,1.52,3.1A15.8,15.8,0,0,0,25.45,31a.4.4,0,0,1,.17.36c0,.29,0,.59.07.88a.31.31,0,0,1-.29.39,2.54,2.54,0,0,0-1.76,1.27c-.53.87-1,1.78-1.57,2.64-.12.18-.24.32-.48.3a4,4,0,0,0-1.81.29c-.23.1-.28,0-.29-.2a2.82,2.82,0,0,1,.86-1.9A6.5,6.5,0,0,0,21.71,33a4.81,4.81,0,0,0,.11-2.44A.31.31,0,0,0,21.42,30.29Z"/><path class="cls-12" d="M28.25,41c.25-.14.22-.3.05-.48a1.29,1.29,0,0,0-1.83-.12c-.35.28-.66.6-1,.91a1.48,1.48,0,0,0-.17-.5,20.64,20.64,0,0,1-1.41-4.48,14.25,14.25,0,0,0-.21-1.46,2.72,2.72,0,0,1,1.74-1.74c.26-.06.34,0,.32.25a6.43,6.43,0,0,1-.49,2.43,1.79,1.79,0,0,1-.06-1.48c0-.16.13-.34-.09-.42s-.28.13-.34.28a2.57,2.57,0,0,0,.12,2.07,7.4,7.4,0,0,0,2.85,3.14,3.31,3.31,0,0,1,1.44,1.81c.51,1.4,1.13,2.76,1.61,4.17a7.59,7.59,0,0,1,.36,1.84c0,.23-.06.3-.28.25a1.58,1.58,0,0,0-1.66.44c-.09.11-.13,0-.18-.05a2.34,2.34,0,0,0-.06-.7c-.15-1.29-.32-2.58-.45-3.87A22.29,22.29,0,0,1,28.25,41Z"/><path class="cls-13" d="M35.65,31.92a11.84,11.84,0,0,1-2.19,2,12.23,12.23,0,0,1-4.25,1.81,13.49,13.49,0,0,1-3,.2l-.41-.07a11,11,0,0,0,.41-4.42c3.19,2.27,6.35,2.3,9.48,0A.82.82,0,0,1,35.65,31.92Z"/><path class="cls-12" d="M32.9,46.9a4.5,4.5,0,0,0-1.28.58,8.27,8.27,0,0,0-.32-2,.69.69,0,0,1,.05-.38l1.59-4.48a1.78,1.78,0,0,1,.79-1,8.3,8.3,0,0,0,2.9-2.78,3,3,0,0,0,.53-2.36,1.9,1.9,0,0,0-.14-.4c-.06-.13-.13-.27-.32-.19s-.15.22-.09.36a2.33,2.33,0,0,1,0,1.52,1.6,1.6,0,0,1-.32-.78,8.76,8.76,0,0,1-.2-1.69c0-.24.07-.25.26-.2a2.2,2.2,0,0,1,1.42,1.1l.3.56c0,.38-.06.75-.11,1.13a18.09,18.09,0,0,1-1.27,4.37,2.26,2.26,0,0,1-.48.92c-.28-.26-.54-.53-.83-.77a1.28,1.28,0,0,0-1.85.06c-.21.19-.26.36,0,.51,0,.12-.05.23-.06.35-.16,1.28-.34,2.56-.48,3.85A9,9,0,0,0,32.9,46.9Z"/><path class="cls-8" d="M48.27,28.93a4.38,4.38,0,0,0,1.67,2.56,5.09,5.09,0,0,1,1.27,1.61,3.44,3.44,0,0,1,0,2.81c0,.11-.12.3-.26.09-.73-1.08-1.7-2-2.38-3.09a4.38,4.38,0,0,1-.42-3.84A.71.71,0,0,1,48.27,28.93Z"/><path class="cls-8" d="M19.35,28.08a2.72,2.72,0,0,1-1.92-2,3.52,3.52,0,0,1,.86-3.42c.27-.34.57-.66.83-1a5.63,5.63,0,0,0,1.23-3.37.56.56,0,0,1,0-.12c.2.1.17.27.17.43,0,.59.09,1.17.12,1.76a3,3,0,0,1-.36,1.4,11.84,11.84,0,0,1-1,1.64,4.48,4.48,0,0,0-.83,2.13,3.23,3.23,0,0,0,.62,2.2l.22.32Z"/><path class="cls-8" d="M42.53,28.08c0-.29.21-.41.31-.59a3.61,3.61,0,0,0-.28-3.89,10.15,10.15,0,0,1-1.28-2.33,3.82,3.82,0,0,1-.09-1.58,6.25,6.25,0,0,1,.15-1.2c.15.05.16.18.17.31a5.06,5.06,0,0,0,1,2.61c.45.67,1,1.23,1.48,1.91a3.34,3.34,0,0,1-.33,4.07A2.85,2.85,0,0,1,42.53,28.08Z"/><path class="cls-14" d="M34.53,46.39l-.1.15a.89.89,0,0,1-1.21.37c.18-2.06.46-4.1.74-6.15.51-.35.8-.32,1.27.15l-.06.27C35,42.92,34.74,44.66,34.53,46.39Z"/><path class="cls-14" d="M28.6,47.46A15.46,15.46,0,0,1,27.18,46c-.06-.54-.11-1.08-.18-1.62-.14-1.15-.33-2.3-.4-3.45.48-.46.82-.48,1.29-.12,0,.16,0,.31,0,.46.23,1.84.47,3.68.68,5.52C28.61,47,28.72,47.22,28.6,47.46Z"/><path class="cls-14" d="M48.91,52.79c-.09-.08-.06-.2-.06-.3V45.33l1.13-.8c.11.12.06.27.06.4,0,1.89-.08,3.78,0,5.67Z"/><path class="cls-14" d="M22.63,36.56l.72-1.21c.11.06.11.17.12.28a16.64,16.64,0,0,0,1.27,4.69,3.2,3.2,0,0,0,.56,1.16l-1.11,1.2A23.64,23.64,0,0,1,22.63,36.56Z"/><path class="cls-14" d="M37.58,42.62a10.13,10.13,0,0,1-1-1.07c.14-.49.4-.94.57-1.41a16.63,16.63,0,0,0,1.22-4.9l.79,1.24a13.29,13.29,0,0,1-.44,2.73A17.3,17.3,0,0,1,37.58,42.62Z"/><path class="cls-14" d="M13,45.88c0,2.17,0,4.35,0,6.53,0,.12,0,.26,0,.38-.34-.83-.84-1.58-1.14-2.42.12-.1.06-.24.06-.36V45.09A7.56,7.56,0,0,1,13,45.88Z"/><path class="cls-8" d="M13.61,28.94A3.51,3.51,0,0,1,13,32.85a15.22,15.22,0,0,1-1.56,1.55c-.16.14-.23.17-.28-.08a3,3,0,0,1,.78-2.78,6.66,6.66,0,0,0,1.39-1.73C13.44,29.55,13.49,29.27,13.61,28.94Z"/><path class="cls-14" d="M50.35,44.26l1.09-.92c.13.08.17.22.26.33-.09,1.36-.07,2.72-.07,4.08l-1.3,2.19c-.13-.17,0-.34,0-.51C50.33,47.71,50.34,46,50.35,44.26Z"/><path class="cls-14" d="M10.24,43.82a14,14,0,0,1,1.21,1c0,1.59,0,3.17,0,4.76,0,.11.08.23,0,.33l-1.28-2.21V44.17C10.15,44.05,10.1,43.91,10.24,43.82Z"/><path class="cls-12" d="M39.51,37.06a1.3,1.3,0,0,1,.34.9,30,30,0,0,1-1.06,5.89,5.13,5.13,0,0,1-.92-1A24.71,24.71,0,0,0,39,39.4C39.22,38.63,39.33,37.84,39.51,37.06Z"/><path class="cls-12" d="M23.91,43a9.07,9.07,0,0,1-.88.87c-.26-.94-.46-1.87-.65-2.8A16.05,16.05,0,0,1,22,38a1.23,1.23,0,0,1,.37-.92,2,2,0,0,0,0,.25,28.28,28.28,0,0,0,1.1,4.35A12.45,12.45,0,0,1,23.91,43Z"/><path class="cls-12" d="M35.6,41.25c.4.42.8.85,1.2,1.26a.25.25,0,0,1,.05.35,19.81,19.81,0,0,1-1.89,3,.74.74,0,0,1,0-.21c.14-1.18.28-2.35.45-3.51A1.67,1.67,0,0,1,35.6,41.25Z"/><path class="cls-12" d="M26.75,45.46a21.22,21.22,0,0,1-1.83-2.56.22.22,0,0,1,0-.33c.43-.46.85-.92,1.31-1.35l.06.31c.12,1,.25,1.92.35,2.88A2.34,2.34,0,0,1,26.75,45.46Z"/><path class="cls-15" d="M43.25,21.59a5.21,5.21,0,0,1-1.31-2.89c0-.22.1-.19.23-.16a1.6,1.6,0,0,1,1.12.95A2.93,2.93,0,0,1,43.25,21.59Z"/><path class="cls-15" d="M18.57,21.59a2.76,2.76,0,0,1,0-2.3,1.56,1.56,0,0,1,1-.75c.2-.05.21.05.2.2A5.21,5.21,0,0,1,18.57,21.59Z"/><path class="cls-5" d="M28.6,47.46c.12-.24,0-.48,0-.71-.21-1.84-.45-3.68-.67-5.52,0-.15,0-.3,0-.46l.36.2a21.67,21.67,0,0,0,.26,2.29c.14,1.29.31,2.58.46,3.87a2.34,2.34,0,0,1,.05.7A1.64,1.64,0,0,1,28.6,47.46Z"/><path class="cls-5" d="M38.38,35.24a16.88,16.88,0,0,1-1.23,4.9c-.17.48-.43.92-.57,1.41l-.35-.37a2.09,2.09,0,0,0,.48-.92A17.6,17.6,0,0,0,38,35.88c.06-.37.08-.75.12-1.12A1.29,1.29,0,0,1,38.38,35.24Z"/><path class="cls-15" d="M20.84,21.76a27.48,27.48,0,0,0,.57,2.79c0,.12,0,.16-.15.13a2.5,2.5,0,0,1-1.41-.95c-.11-.13,0-.22.07-.31A11.68,11.68,0,0,0,20.84,21.76Z"/><path class="cls-5" d="M25.3,41.48a3.2,3.2,0,0,1-.56-1.16,16.64,16.64,0,0,1-1.27-4.69c0-.11,0-.22-.12-.28l.33-.52a14.45,14.45,0,0,1,.21,1.47,20.3,20.3,0,0,0,1.42,4.48,1.68,1.68,0,0,1,.17.49A.29.29,0,0,1,25.3,41.48Z"/><path class="cls-15" d="M41,21.79a11.5,11.5,0,0,0,1,1.71c0,.08.1.16,0,.25a3,3,0,0,1-1.24.91c-.27.08-.31,0-.25-.25A21.67,21.67,0,0,0,41,21.79Z"/><path class="cls-6" d="M23.91,43a12.45,12.45,0,0,0-.46-1.34,27.06,27.06,0,0,1-1.1-4.34,2.09,2.09,0,0,1,0-.25,1.47,1.47,0,0,1,.29-.48,23.61,23.61,0,0,0,1.56,6.13A1.24,1.24,0,0,1,23.91,43Z"/><path class="cls-6" d="M39.51,37.06c-.17.78-.28,1.57-.49,2.35a25.58,25.58,0,0,1-1.15,3.5.81.81,0,0,1-.29-.29,16.67,16.67,0,0,0,1.14-3.41,13.29,13.29,0,0,0,.44-2.73Z"/><path class="cls-6" d="M34,40.76c-.28,2-.55,4.09-.73,6.14h-.33a9.92,9.92,0,0,1,.16-1.72c.14-1.29.31-2.57.48-3.86,0-.11,0-.23.06-.34Z"/><path class="cls-7" d="M37.3,51.74V56a.6.6,0,0,1,0,.35c-.21-1.33-.42-2.67-.74-4-.07-.28,0-.41.27-.46a2.65,2.65,0,0,0,.37-.12l.09,0Z"/><path class="cls-6" d="M50.35,44.26c0,1.73,0,3.45,0,5.17,0,.17-.13.34,0,.51a3,3,0,0,1-.34.66c0-1.89,0-3.78,0-5.67,0-.13.05-.28-.06-.4Z"/><path class="cls-5" d="M11.43,49.89c.12-.1.05-.22,0-.33,0-1.59-.06-3.17,0-4.76a.63.63,0,0,1,.35.29V50c0,.13.06.26-.06.37C11.57,50.25,11.54,50.05,11.43,49.89Z"/><path class="cls-6" d="M35.6,41.25a1.67,1.67,0,0,0-.19.88c-.17,1.17-.31,2.34-.45,3.51a.74.74,0,0,0,0,.21,1.78,1.78,0,0,1-.43.55c.21-1.74.43-3.48.64-5.21a2.3,2.3,0,0,1,.06-.28A1.19,1.19,0,0,1,35.6,41.25Z"/><path class="cls-11" d="M33,7.91a2,2,0,0,1,1.41.82c0,.06.1.13.06.2s-.15.05-.23,0A6.44,6.44,0,0,0,32,8.7c-.13,0-.27,0-.32-.15s.11-.18.18-.26A1.63,1.63,0,0,1,33,7.91Z"/><path class="cls-5" d="M26.75,45.46a2.34,2.34,0,0,0-.08-1.05c-.1-1-.23-1.92-.35-2.88l-.06-.31a1.57,1.57,0,0,1,.34-.34c.07,1.16.27,2.31.41,3.46L27.19,46Z"/><path class="cls-7" d="M52,44.18a11.18,11.18,0,0,1,.79,1.54.4.4,0,0,1-.06.45c-.25.32-.49.66-.73,1-.11-.1-.06-.24-.06-.36V44.49C52,44.38,51.94,44.27,52,44.18Z"/><path class="cls-11" d="M30.21,8.7a6.07,6.07,0,0,0-2.41.15.27.27,0,0,1-.34-.13c-.1-.15,0-.21.11-.29A1.81,1.81,0,0,1,30.21,8.7Z"/><path class="cls-12" d="M9.74,47.1c-.23-.32-.45-.65-.69-1A.38.38,0,0,1,9,45.7a9.37,9.37,0,0,1,.73-1.45c.07,0,.07.11.07.18,0,.83,0,1.66,0,2.48A.2.2,0,0,1,9.74,47.1Z"/><path class="cls-5" d="M9.74,47.1a.2.2,0,0,0,.07-.19c0-.82,0-1.65,0-2.48,0-.07,0-.14-.07-.18L10,43.8c.09-.13.17-.11.23,0-.13.09-.08.23-.08.35,0,1.17,0,2.34,0,3.51Z"/><path class="cls-5" d="M52,44.18c-.1.09-.06.2-.06.31,0,.77,0,1.54,0,2.31,0,.12,0,.26.06.36a2.71,2.71,0,0,1-.41.59c0-1.36,0-2.72.07-4.08A2.16,2.16,0,0,1,52,44.18Z"/><path class="cls-6" d="M50.7,50.25a.05.05,0,0,1-.06.06A.05.05,0,0,1,50.7,50.25Z"/><path class="cls-6" d="M37.24,51.75l-.09,0S37.19,51.73,37.24,51.75Z"/><path class="cls-8" d="M19.35,28.08l0,0h0S19.35,28.09,19.35,28.08Z"/><path class="cls-16" d="M34.08,5.84a4.33,4.33,0,0,1,3.35,1.91c.09.12.18.3,0,.41S37.2,8.1,37.1,8a4.12,4.12,0,0,0-2.35-1.67,2.9,2.9,0,0,0-1.6.05,1.17,1.17,0,0,1-.2.06c-.11,0-.23,0-.26-.13s.06-.19.17-.23A2.94,2.94,0,0,1,34.08,5.84Z"/><path class="cls-16" d="M28.06,5.84A2.51,2.51,0,0,1,29.11,6c.12,0,.25.12.2.28s-.21.12-.33.08a3.63,3.63,0,0,0-4,1.47l0,.06c-.11.13-.2.38-.4.23s0-.32.08-.45A4.18,4.18,0,0,1,28.06,5.84Z"/><path class="cls-16" d="M31.1,5.37V7c0,.14,0,.29-.18.29s-.17-.16-.17-.3V3.73c0-.15,0-.3.21-.29s.14.18.14.3c0,.55,0,1.09,0,1.63Z"/><path class="cls-3" d="M23.39,19.51l-.22.07-.18,0-.44-.13c-.11-.05-.23-.12-.19-.26s.2-.18.31-.13a.44.44,0,0,0,.58-.18c.08-.09.13-.14,0-.21a.43.43,0,0,1-.2-.15c-.07-.08-.18-.17-.06-.3s.2-.06.28,0a.65.65,0,0,0,.83,0,3,3,0,0,1,4.21,1.39c.16.35.12.42-.25.5a2,2,0,0,0-.85-1.17,1.4,1.4,0,0,1-.74,1.66,1.61,1.61,0,0,1-1.06-.06,1.33,1.33,0,0,1-.28-2.15A3.06,3.06,0,0,0,23.39,19.51Zm2.12-.19a.34.34,0,0,0,.32-.34.34.34,0,0,0-.68,0h0c0,.2.12.33.36.36Z"/><path class="cls-3" d="M36.44,20.51a1.5,1.5,0,0,1-1.06.09,1.43,1.43,0,0,1-.77-1.72,2.81,2.81,0,0,0-.74.93c0,.12-.07.29-.27.27s-.16-.3-.08-.49a3,3,0,0,1,4.1-1.44c.35.18.65.35,1,0a.17.17,0,0,1,.23,0h0a.21.21,0,0,1,0,.26,1.07,1.07,0,0,1-.36.27c.16.26.33.44.67.32.12,0,.28-.06.32.12s-.1.23-.22.28a1.46,1.46,0,0,1-.8.08,2.6,2.6,0,0,0-1.72-1.09A1.33,1.33,0,0,1,36.44,20.51ZM35.72,19a.34.34,0,0,0-.33-.35.3.3,0,0,0-.35.26.06.06,0,0,0,0,0,.32.32,0,0,0,.33.37C35.59,19.32,35.68,19.18,35.72,19Z"/><path class="cls-17" d="M33.8,27.06A1.7,1.7,0,0,1,33,28a4,4,0,0,1-4.43-.09,2.17,2.17,0,0,1-.64-.77,9.07,9.07,0,0,0,2.11.42A10.18,10.18,0,0,0,33.8,27.06Z"/><path class="cls-3" d="M33.8,27.06a10.18,10.18,0,0,1-3.72.46A9.09,9.09,0,0,1,28,27.09l-.49-.33a.17.17,0,0,1-.06-.25s0,0,0,0a.2.2,0,0,1,.27-.06l0,0a1.12,1.12,0,0,0,.51.28l.29.13a8.47,8.47,0,0,0,3.61.2,4.33,4.33,0,0,0,1.46-.39,1.47,1.47,0,0,0,.49-.27c.11-.08.23-.12.32,0a.22.22,0,0,1-.08.34Z"/><path class="cls-3" d="M30.48,20.9a6.37,6.37,0,0,1-.38,1.94c-.21.65-.06,1,.59,1.19l.3.07c.12,0,.22.12.18.27s-.13.15-.25.14a1.3,1.3,0,0,1-1.22-1.73,7.13,7.13,0,0,0,.41-2.29c0-.14,0-.31.18-.32s.19.17.19.31S30.48,20.76,30.48,20.9Z"/><path class="cls-12" d="M36.44,20.51a1.33,1.33,0,0,0,.29-2.08,2.6,2.6,0,0,1,1.72,1.09,3.61,3.61,0,0,1-1.9,1.06S36.48,20.54,36.44,20.51Z"/><path class="cls-7" d="M23.39,19.51a3,3,0,0,1,1.73-1.13,1.34,1.34,0,0,0,.28,2.15c-.12.13-.24,0-.35,0A3.47,3.47,0,0,1,23.39,19.51Z"/><path class="cls-13" d="M33.61,26.67a4.58,4.58,0,0,1-1.46.39,8.47,8.47,0,0,1-3.61-.2l-.29-.13a4.73,4.73,0,0,1,2-.36,2.45,2.45,0,0,0-.57.32c-.07,0-.15.08-.12.19s.1.11.19.13a9.72,9.72,0,0,0,2.41-.07c.18,0,.21-.11.06-.22a.65.65,0,0,1-.26-.41A13.1,13.1,0,0,1,33.61,26.67Z"/><path class="cls-17" d="M32,26.31a.61.61,0,0,0,.26.4c.14.12.12.2-.06.22a9.26,9.26,0,0,1-2.41.08c-.09,0-.16,0-.19-.14s.05-.14.12-.18a2.14,2.14,0,0,1,.57-.32,1.59,1.59,0,0,0,1.21,0l.14-.05Z"/><path class="cls-7" d="M33.6,20.08c.19,0,.22-.15.27-.27a2.81,2.81,0,0,1,.74-.93,1.43,1.43,0,0,0,.77,1.72,1.72,1.72,0,0,1-1-.16A2.31,2.31,0,0,1,33.6,20.08Z"/><path class="cls-12" d="M26.46,20.59a1.41,1.41,0,0,0,.74-1.66,2,2,0,0,1,.85,1.16A2,2,0,0,1,26.46,20.59Z"/><path class="cls-7" d="M23,19.56l.18,0Z"/><path class="cls-13" d="M31.6,26.31l-.14.06A.12.12,0,0,1,31.6,26.31Z"/><path class="cls-16" d="M27.59,49c-.07.12-.14.21-.32.1a8.88,8.88,0,0,1-1.31-1,16.92,16.92,0,0,1-2.07-2l-.16-.18a.21.21,0,0,1,0-.27c.08-.1.17,0,.25,0s.29.33.45.5a21.53,21.53,0,0,0,2.9,2.49C27.53,48.8,27.6,48.89,27.59,49Z"/><path class="cls-7" d="M25.51,19.32c-.24,0-.36-.16-.36-.36a.34.34,0,0,1,.35-.33.35.35,0,0,1,.33.35h0A.34.34,0,0,1,25.51,19.32Z"/><path class="cls-7" d="M35.72,19c0,.2-.15.34-.36.32a.32.32,0,0,1-.33-.37.31.31,0,0,1,.32-.31h0A.34.34,0,0,1,35.72,19Z"/></g></g></g></g></svg>